<?xml version="1.0" encoding="iso-8859-1"?>
<!-- Uploaded to: SVG Repo, www.svgrepo.com, Generator: SVG Repo Mixer Tools -->
<svg fill="currentColor" version="1.1" id="Capa_1" xmlns="http://www.w3.org/2000/svg" xmlns:xlink="http://www.w3.org/1999/xlink" 
	 width="800px" height="800px" viewBox="0 0 565.041 565.041"
	 xml:space="preserve">
<g>
	<path d="M494.433,550.502c22.95-90.576,55.692-180.234,69.156-272.646c0.306-2.448-2.143-3.978-3.979-3.366
		c-28.764-68.238-57.222-141.372-35.496-215.424c3.061-3.978-2.142-9.18-6.119-5.814c-1.53,1.53-3.366,3.06-4.896,4.59
		c-0.918-0.918-2.142-1.224-3.366-1.224c-91.8,9.792-185.13,8.568-268.056-35.19c-1.836-5.814-3.366-11.628-5.202-17.442
		c-0.918-3.06-3.672-3.672-5.814-2.448c-2.754-2.448-8.568-2.142-9.486,2.142C200.673,119.348,95.103,200.132,7.893,269.594
		c-0.918-1.224-1.836-1.224-2.754-0.918c0-0.612,0.306-1.224,1.224-2.754c0.918-0.612-0.306-1.224-0.918-0.612
		c-3.366,2.754-2.448,3.672-3.06,6.732c-0.306,0.918,0,1.836,0.306,2.448c-3.366,3.06,0.612,7.651,4.59,6.732
		c38.862,87.21,48.348,172.584,50.49,267.75c0,6.12,8.262,6.427,9.792,1.225c1.836-2.755,3.672-5.509,5.508-8.263
		c0.612,0,1.224,0,2.142,0c121.482-41.004,294.984-67.319,402.696,16.83c1.53,1.225,3.366,1.225,4.896,0.918
		c0,0.307,0,0.612,0,0.918c-0.306,5.202,7.65,6.12,8.874,1.225c0.306-1.225,0.612-2.143,0.918-3.366
		c3.06,0.306,6.12-3.366,3.366-6.426C495.351,551.42,495.045,551.114,494.433,550.502z M501.777,69.164
		c-12.852,12.546-25.704,25.092-37.943,38.556c-2.448,0.306-4.59,2.142-4.896,5.202c-10.404,11.322-20.502,22.644-30.294,34.272
		c0-2.754-2.448-5.202-5.202-3.366c-46.512,28.152-96.695,36.414-142.902,4.896c-1.224-0.918-2.754-0.918-3.978-0.306
		c-3.06-14.688-6.426-29.07-10.404-43.452c33.967,56.61,165.547,35.496,201.042-6.732c2.448-3.06-1.224-7.038-4.283-4.284
		c-50.796,44.981-142.597,37.638-192.781-1.224c-2.754-2.142-5.814-1.224-7.038,0.918c-5.508-20.808-11.628-41.616-18.054-62.118
		C319.095,74.06,418.851,87.218,501.777,69.164z M505.143,306.926c2.448-0.918,4.284-2.142,6.426-3.06
		c-45.899,48.653-70.686,115.668-73.134,182.069c-11.016-13.77-22.338-27.54-33.354-41.31
		c-12.546-62.73,29.987-104.346,74.97-140.76c5.202-4.284-1.836-13.158-7.038-9.181c-43.758,31.519-90.576,80.479-78.642,136.782
		c-12.547-14.994-25.093-29.376-38.557-43.146c2.143,0.611,4.896-0.612,5.202-3.672c2.448-39.169,23.868-67.32,50.49-92.719
		c15.3,0.918,30.906,0.918,46.206,0.307c1.53,1.529,2.754,3.06,4.284,4.59c3.365,3.366,8.262-1.225,5.813-4.896
		c16.83-0.611,33.66-1.529,50.49-2.447c-2.448,4.896-7.038,9.791-14.688,14.382C501.471,305.09,503.307,307.844,505.143,306.926z
		 M273.807,188.81c0.306,0.612,0.918,0.918,1.224,1.53c0,0.612,0.306,1.53,0.306,2.142c-11.934,18.054-25.092,35.19-40.392,50.184
		c-8.262,7.956-17.136,14.688-26.928,20.502c-9.18,5.508-19.278,5.814-28.458,10.404c-2.754,1.224-2.448,4.284-0.612,6.12
		c-1.224,1.224-2.142,3.06-0.918,4.896c0.306,0.612,0.918,1.224,1.224,2.142c-18.666-0.611-37.026-2.142-55.386-4.284
		c60.588-19.277,105.264-73.439,144.432-122.093c1.836,7.956,3.672,15.912,5.508,23.868
		C273.195,185.75,273.195,187.28,273.807,188.81z M415.485,273.266c-0.611,0.306-0.918,0.918-1.529,1.224
		c-6.427-9.486-11.629-19.584-14.994-31.212c-3.979-13.158-3.366-26.316-3.366-39.78c8.874-9.792,17.748-19.89,26.622-29.682
		c-11.322,36.72,3.06,77.112,26.315,107.1c-8.567,0.306-16.83,0.306-25.397,0.306l0.306-0.306
		C428.643,276.326,420.993,268.982,415.485,273.266z M353.367,385.874c-7.037-7.038-14.075-14.076-21.42-20.502
		c1.225-1.225,1.836-2.754,1.225-4.284c-10.71-25.704-44.676-29.988-70.075-26.928c4.59-18.973,1.224-37.026-13.77-48.96
		c19.584-14.382,32.13-28.764,37.332-50.184c13.158,21.114,34.272,33.966,60.895,26.316c-1.836,7.038-0.612,15.606,2.448,20.808
		c2.754,4.896,7.344,7.65,12.546,9.181c-13.464,3.672-26.01,12.546-32.742,23.562c-10.098,15.912-2.448,35.496,7.344,49.572
		c2.754,3.978,9.181,0.611,6.732-3.979c-7.038-12.546-11.322-26.315-3.979-39.779c8.263-15.301,27.234-15.912,41.616-21.727
		c3.672-1.53,3.979-5.202,2.143-7.344c0.306-0.612,0.611-1.224,0.611-1.836c3.979,0.612,7.956,0.918,12.24,1.224
		c-25.092,25.398-42.84,56.61-42.84,93.942C353.367,385.262,353.367,385.568,353.367,385.874z M252.387,331.712
		c-11.016,7.344-22.032,15.606-33.048,24.174c-3.366-20.196-11.016-39.168-21.726-56.916c15.606-1.53,31.212-3.978,45.594-7.344
		C255.141,301.724,258.812,316.718,252.387,331.712z M259.73,343.034c12.546-1.53,24.787-0.918,37.027,2.754
		c7.038,2.142,12.24,6.12,17.441,10.404c-0.306,0.918,0,1.836,0.918,2.754c4.896,4.283,9.181,9.18,13.771,13.77
		c-31.519-12.24-68.544-10.098-102.205-8.568c7.65-7.037,15.3-14.382,23.256-21.113C252.387,345.481,257.283,346.4,259.73,343.034z
		 M209.241,363.842c-11.934,9.792-23.868,20.196-35.496,31.212c-4.896-37.943-35.19-70.992-63.342-97.92
		c25.398,3.672,51.714,4.59,77.112,2.754C198.836,319.778,206.792,341.198,209.241,363.842z M212.301,377.918
		c3.366,2.448,9.18,0.918,9.18-4.284c0-0.612,0-1.53-0.306-2.142c45.288,1.224,86.598,0.918,127.909,23.562
		c0.611,0.307,1.224,0.307,1.529,0.612c11.628,13.158,22.645,26.928,33.66,40.698c-60.894-16.219-132.804-33.354-197.982-32.13
		C194.553,395.054,203.427,386.18,212.301,377.918z M284.517,200.744c24.174,19.584,70.074,22.644,95.778,4.896
		c-11.628,14.688-23.256,29.376-34.578,44.064c-28.765,4.284-46.206-7.956-56.61-36.414c-0.611-1.836-2.142-3.06-3.672-3.672
		C285.435,206.558,284.823,203.804,284.517,200.744z M375.399,277.856c-3.06-0.612-5.508,1.836-6.12,4.285
		c-3.672-1.225-7.038-3.061-9.18-6.121c-4.896-7.344,2.754-15.3,0.918-22.644c-0.612-2.754-3.672-3.672-5.813-2.448
		c-0.307-0.306-0.919-0.612-1.53-0.918c10.098-11.322,20.195-22.644,30.294-33.66c-0.612,22.95,8.568,46.512,22.95,64.26
		l-0.307,0.306C396.208,280.304,385.803,279.386,375.399,277.856z M392.535,190.646c-0.611-0.306-1.224-0.612-1.836-0.612
		c-17.441,4.896-31.518,12.852-50.184,14.382c-21.114,1.53-37.332-6.426-53.55-17.442c0.611-2.448-2.143-4.284-4.285-3.672
		c-1.224-7.344-2.448-14.994-3.672-22.338c33.661,40.392,109.243,16.83,145.657-9.18
		C413.649,164.636,402.939,177.794,392.535,190.646z M279.009,211.148c-0.612,0.918-1.224,2.142-1.224,3.672
		c-0.612,30.906-14.076,46.206-37.332,64.26l0,0c-4.59-2.448-8.568,3.979-4.896,6.731c-15.606,0.918-30.6,1.225-45.9,1.225
		c-1.224-1.53-2.448-3.366-3.672-4.896c17.136,2.141,36.108-13.159,47.736-23.257c17.442-14.994,31.824-34.884,43.452-55.08
		C278.091,206.558,278.396,208.7,279.009,211.148z M204.651,214.514c-30.906,31.518-65.484,53.856-109.548,62.424
		c-1.224,0.306-1.836,0.612-2.448,1.224c-5.814-0.918-11.628-2.142-17.748-3.06c29.682-13.77,56.304-38.25,80.172-59.058
		c36.72-32.742,73.134-71.91,97.002-115.668c5.202,17.748,10.098,35.802,14.688,53.55
		C243.207,170.756,224.847,194.012,204.651,214.514z M98.469,295.298c13.464,14.688,26.622,29.682,38.25,46.206
		c14.076,19.584,20.502,40.086,27.846,62.424c-0.306,0.307-0.918,0.918-1.224,1.225c-1.53,0-3.06,0.306-4.284,0.306
		c-2.142,0.306-3.06,3.672-0.612,3.978c0.306,0,0.306,0,0.612,0c-15.3,15.606-30.294,31.824-43.758,48.654
		c0.306-61.506-40.086-112.608-54.468-171.972C73.071,289.79,85.617,292.85,98.469,295.298z M178.029,412.189
		c69.156,10.099,137.395,21.114,206.244,33.967c2.754,0.611,4.896-1.225,5.814-3.061c7.038,8.874,13.77,17.748,20.808,26.622
		c-85.68-36.72-185.742-2.754-277.236-7.344C147.735,445.238,162.423,428.408,178.029,412.189z M458.937,280.916
		c-26.315-34.578-32.13-71.91-23.868-115.668c0.307-1.53-0.306-3.06-1.529-4.284c8.567-9.486,16.829-18.972,25.397-28.458
		c1.53,21.726,7.344,41.922,16.524,62.424c7.649,17.442,18.666,33.66,28.764,49.878c7.038,11.322,14.994,22.338,16.218,32.742
		C499.941,278.468,479.439,279.998,458.937,280.916z M229.131,21.428c0.918,0.612,1.836,1.224,2.754,1.836
		c5.202,23.562,11.322,46.818,18.054,70.074c-27.846,32.436-53.856,65.79-84.15,96.084c-33.048,33.048-70.992,55.998-108.936,82.314
		c-7.038-1.53-14.076-2.754-21.42-4.59c-4.284-0.918-7.344,4.59-4.896,7.344c-3.366-0.306-6.426-0.612-9.486-0.918
		c-0.918,0-1.836-0.306-2.448-0.306C102.141,208.394,206.792,129.752,229.131,21.428z M13.707,279.692
		c3.366,0.918,6.732,1.53,9.792,2.142c8.874,1.529,18.666,4.896,27.846,4.59c1.224,0,2.142-0.612,2.754-1.53
		c-2.142,21.727,8.262,43.452,16.83,63.036c18.666,42.229,35.496,79.254,32.13,125.767c-12.546,16.829-23.868,34.271-33.66,52.02
		C73.989,440.342,53.487,355.273,13.707,279.692z M80.415,530.918c14.994-21.42,30.6-41.922,47.124-61.812
		c99.756,10.711,208.999-29.682,300.187,22.645c0.306,0,0.306,0,0.612,0.306c8.874,11.017,18.359,21.727,27.846,32.13
		c-39.474-24.785-94.86-29.376-138.006-31.212C238.617,489.302,155.69,503.99,80.415,530.918z M484.641,539.792
		c-13.464-14.688-26.316-29.682-38.862-44.982c4.59-76.193,34.885-132.191,79.254-192.779c1.53-2.143,0.612-4.284-1.224-5.509
		c3.06-2.142,6.12-4.59,8.874-7.344c3.672,0,7.344-0.306,11.016-0.306c7.65,0,7.65-11.934,0-11.934
		c-2.754,0-5.813,0.306-8.567,0.306c-24.48-54.162-63.342-95.778-64.566-157.59c13.771-15.3,27.54-30.6,41.004-46.206
		c-18.972,68.85,9.486,144.126,39.168,206.55c1.225,2.447,3.672,2.754,5.814,2.142C535.131,366.902,494.739,452.276,484.641,539.792
		z"/>
</g>
</svg>